<?xml version="1.0" standalone="no"?>
<!DOCTYPE svg PUBLIC "-//W3C//DTD SVG 20010904//EN"
 "http://www.w3.org/TR/2001/REC-SVG-20010904/DTD/svg10.dtd">
<svg version="1.0" xmlns="http://www.w3.org/2000/svg"
 width="700.000000pt" height="700.000000pt" viewBox="0 0 700.000000 700.000000"
 preserveAspectRatio="xMidYMid meet">
<metadata>
Created by potrace 1.11, written by Peter Selinger 2001-2013
</metadata>
<g transform="translate(0.000000,700.000000) scale(0.100000,-0.100000)"
fill="#000000" stroke="none">
<path d="M3251 6989 c-1228 -88 -2317 -813 -2870 -1909 -190 -376 -307 -765
-357 -1190 -24 -198 -24 -582 0 -780 80 -671 333 -1279 752 -1805 113 -141
388 -416 529 -529 938 -747 2164 -969 3295 -596 795 263 1472 807 1904 1530
554 927 647 2071 249 3075 -349 882 -1052 1594 -1922 1950 -506 207 -1041 293
-1580 254z m454 -791 c271 -41 546 -213 710 -442 25 -36 183 -302 351 -593
168 -290 308 -527 312 -526 4 1 74 40 155 88 82 48 150 85 152 83 4 -4 -332
-1289 -339 -1295 -3 -4 -770 196 -1189 309 l-118 31 133 78 c73 43 136 79 141
79 4 0 7 5 7 11 0 15 -500 882 -516 895 -8 6 -14 14 -14 17 0 12 -63 111 -116
182 -101 138 -226 241 -344 286 -77 30 -206 36 -290 15 -93 -24 -213 -84 -305
-153 -88 -67 -226 -206 -294 -295 -43 -58 -60 -74 -42 -40 61 114 453 782 488
830 60 84 167 190 256 253 246 173 538 237 862 187z m-1011 -1465 c30 -101
346 -1276 344 -1278 -2 -2 -68 35 -148 81 -80 45 -148 80 -151 76 -4 -4 -134
-230 -291 -502 -385 -670 -424 -757 -435 -971 -7 -128 12 -226 62 -327 133
-265 461 -442 894 -482 49 -4 -184 -7 -539 -6 -671 3 -661 2 -821 57 -374 127
-657 458 -745 869 -21 102 -21 311 1 415 18 89 57 209 87 270 11 22 179 317
374 655 195 338 355 620 356 625 1 6 -61 46 -138 90 -78 44 -142 84 -143 89
-2 9 1229 352 1271 355 9 0 19 -7 22 -16z m3080 -1316 c142 -246 273 -482 290
-525 183 -436 79 -925 -271 -1263 -149 -144 -313 -232 -532 -286 -57 -14 -163
-17 -773 -20 l-707 -4 -3 -130 -3 -129 -480 474 -480 474 385 388 c212 214
426 431 475 482 l90 93 5 -183 5 -183 650 1 c570 1 660 3 733 18 216 44 359
148 442 321 54 113 65 169 64 325 0 112 -5 154 -27 242 -27 108 -77 248 -117
329 -54 107 14 -6 254 -424z m-2744 -840 c0 -1 -100 -101 -222 -222 l-223
-220 220 223 c204 206 225 227 225 219z m-450 -450 c0 -2 -12 -14 -27 -28
l-28 -24 24 28 c23 25 31 32 31 24z m-84 -149 l29 -33 -32 29 c-31 28 -38 36
-30 36 2 0 16 -15 33 -32z m70 -70 l29 -33 -32 29 c-31 28 -38 36 -30 36 2 0
16 -15 33 -32z m234 -235 l195 -198 -197 195 c-184 181 -203 200 -195 200 1 0
90 -89 197 -197z m285 -283 c10 -11 16 -20 13 -20 -3 0 -13 9 -23 20 -10 11
-16 20 -13 20 3 0 13 -9 23 -20z m56 -57 c13 -16 12 -17 -3 -4 -17 13 -22 21
-14 21 2 0 10 -8 17 -17z"/>
</g>
</svg>
